<svg xmlns="http://www.w3.org/2000/svg" viewBox="0 0 335.72 52.39"><defs><style>.cls-1{fill:#1a305c;}.cls-2{fill:#dc1f26;}</style></defs><g id="Layer_2" data-name="Layer 2"><g id="Layer_1-2" data-name="Layer 1"><path class="cls-1" d="M83.35,37.87a3.67,3.67,0,1,0,0-7.33H77.07v7.33Zm3.26-16.68A3.38,3.38,0,0,0,83,17.7H77.07v7H83a3.38,3.38,0,0,0,3.65-3.48m3.17,5.93a8.47,8.47,0,0,1,4.53,7.81c0,5.25-4.61,9.44-10.29,9.44H70.12V11.67H83.64c5.64,0,9.83,3.6,9.83,8.41a8.6,8.6,0,0,1-3.69,7"/><path class="cls-1" d="M144,38.29v6.07h-4.85c-5.55,0-9-3.4-9-9V24.63h-4.56V23.15l10-10.59h1.31v6.59h7v5.48H137v9.83c0,2.43,1.4,3.83,3.89,3.83Z"/><path class="cls-1" d="M164.1,38.29v6.07h-4.85c-5.55,0-9-3.4-9-9V24.63h-4.56V23.15l10-10.59H157v6.59h7v5.48h-6.85v9.83c0,2.43,1.4,3.83,3.89,3.83Z"/><path class="cls-1" d="M212,19v6.43h-3c-3.84,0-5.36,1.7-5.36,5.82V44.37h-6.82V19.15h4.37l1.21,3.08A8.64,8.64,0,0,1,209.74,19Z"/><path class="cls-1" d="M111.06,24.25A6.21,6.21,0,0,1,117.3,29H105.08a5.91,5.91,0,0,1,6-4.76m5.88,11.9c-.17.22-.32.38-.5.59A7.25,7.25,0,0,1,111.06,39c-3.31,0-5.57-1.89-6.16-5.33H124a15,15,0,0,0,.13-2c0-7.27-5.31-13.24-13-13.24C103.57,18.43,98,24.16,98,31.75a12.94,12.94,0,0,0,13.08,13.33,13.92,13.92,0,0,0,10.78-4.86Z"/><path class="cls-1" d="M179.79,24.25A6.21,6.21,0,0,1,186,29H173.81a5.91,5.91,0,0,1,6-4.76m5.88,11.9c-.17.22-.32.38-.5.59A7.25,7.25,0,0,1,179.79,39c-3.31,0-5.57-1.89-6.16-5.33h19.08a15,15,0,0,0,.13-2c0-7.27-5.31-13.24-13.05-13.24a12.9,12.9,0,0,0-13.08,13.32,12.94,12.94,0,0,0,13.08,13.33,13.92,13.92,0,0,0,10.78-4.86Z"/><path class="cls-2" d="M37.92,0A14.7,14.7,0,0,0,26.3,5.68a24.75,24.75,0,0,1,4.61,1.18l.08,0a10.45,10.45,0,1,1-3.46,8.88A15.82,15.82,0,0,0,26,15.32h0l-.53-.11h0A14.65,14.65,0,0,0,23.21,15,14.71,14.71,0,1,0,37.92,0"/><path class="cls-1" d="M37.92,29.43h-.48v.33A14.77,14.77,0,1,1,36,23.36a8.88,8.88,0,0,0,1.65.15,9.16,9.16,0,0,0,6-2.24,22.66,22.66,0,1,0,1.64,8.48c0-.76,0-1.51-.11-2.25a14.52,14.52,0,0,1-7.26,1.93"/><path class="cls-1" d="M237.19,27.45a7.73,7.73,0,0,1,3.66,3.19,9.22,9.22,0,0,1,1.34,4.9,8.48,8.48,0,0,1-2.91,6.55,10.28,10.28,0,0,1-7.19,2.64H218.76V11.4H231.9a9.57,9.57,0,0,1,6.74,2.43,7.92,7.92,0,0,1,2.64,6.09,9,9,0,0,1-1.12,4.33A7.88,7.88,0,0,1,237.19,27.45Zm-.15-7a4.86,4.86,0,0,0-2.57-4.36,5.59,5.59,0,0,0-2.66-.64h-9v10h9A5.09,5.09,0,0,0,235.54,24,4.75,4.75,0,0,0,237,20.49Zm-5,20.1A5.81,5.81,0,0,0,236.19,39a5.21,5.21,0,0,0,1.66-4,5.15,5.15,0,0,0-1.66-3.91A5.81,5.81,0,0,0,232,29.59h-9.19v11Z"/><path class="cls-1" d="M260.57,45.3a14.08,14.08,0,0,1-6.95-1.73,12.61,12.61,0,0,1-4.91-4.81A13.63,13.63,0,0,1,247,31.88a12.92,12.92,0,0,1,3.88-9.63,13.35,13.35,0,0,1,9.74-3.81,14.09,14.09,0,0,1,7,1.74,12.79,12.79,0,0,1,4.9,4.81,13.46,13.46,0,0,1,1.79,6.89,12.85,12.85,0,0,1-3.91,9.59A13.34,13.34,0,0,1,260.57,45.3Zm-6.79-6.59a9.51,9.51,0,0,0,16.32-6.83,9.51,9.51,0,1,0-19,0A9.26,9.26,0,0,0,253.78,38.71Z"/><path class="cls-1" d="M293.24,18.44a9.16,9.16,0,0,1,7.22,3,11.45,11.45,0,0,1,2.69,7.86V44.73h-4V30.3a11,11,0,0,0-.79-4.43A5.93,5.93,0,0,0,296,23.11a7.66,7.66,0,0,0-9.31,1.5,8.69,8.69,0,0,0-2.24,6.07v14h-4.05V19h2.86l.81,4a9.57,9.57,0,0,1,2.33-2.5A10.56,10.56,0,0,1,289.53,19,12.57,12.57,0,0,1,293.24,18.44Z"/><path class="cls-1" d="M331.67,9.82h4.05V44.73h-3.09l-.58-3.66a13.7,13.7,0,0,1-19.4.4,13.14,13.14,0,0,1-3.74-9.59,13.16,13.16,0,0,1,3.74-9.63,13.77,13.77,0,0,1,19,0ZM315.72,38.69a9.76,9.76,0,0,0,13.53,0A9.28,9.28,0,0,0,332,31.88a9.3,9.3,0,0,0-2.69-6.82,9.17,9.17,0,0,0-6.79-2.71,9.66,9.66,0,0,0-3.76.74,9.15,9.15,0,0,0-3,2,8.79,8.79,0,0,0-2,3,10,10,0,0,0-.72,3.79A9.32,9.32,0,0,0,315.72,38.69Z"/></g></g></svg>