<svg xmlns="http://www.w3.org/2000/svg" width="239.45" height="76.04" viewBox="0 0 239.45 76.04"><defs><style>.cls-1{fill:#ff0801;}.cls-2{fill:none;stroke:#211e24;stroke-miterlimit:10;}.cls-3,.cls-4{fill:#fffffa;}.cls-4{font-size:11.59px;font-family:OpenSans-LightItalic, Open Sans;font-weight:300;font-style:italic;}</style></defs><g id="Layer_2" data-name="Layer 2"><g id="Layer_1-2" data-name="Layer 1"><path class="cls-1" d="M235.83,0H121.92a4.72,4.72,0,0,0-4.56,4.07L109.3,72A3.55,3.55,0,0,0,112.89,76H226.8A4.73,4.73,0,0,0,231.36,72l8.06-67.89A3.54,3.54,0,0,0,235.83,0Z"/><path class="cls-1" d="M1.47,47.35a5,5,0,0,1,3.58-1.48A4,4,0,0,1,7.89,47,3.91,3.91,0,0,1,9,49.84a4.67,4.67,0,0,1-1.41,3.52A4.71,4.71,0,0,1,4,54.72a3.87,3.87,0,0,1-2.95-1.13A3.67,3.67,0,0,1,0,50.92,5.25,5.25,0,0,1,1.47,47.35Z"/><polygon class="cls-1" points="1.7 42.47 5.08 14.96 12.43 14.96 9.05 42.47 1.7 42.47"/><path class="cls-2" d="M16.34,29.42h6.92l-.39,3.17a8.56,8.56,0,0,1,3-2.83,9.09,9.09,0,0,1,4.77-1.14c3.29,0,5.33,1,6.58,2.27a7.47,7.47,0,0,1,1.93,5.39,32.48,32.48,0,0,1-.45,4.2L37.05,54H30.13l1.42-11.41c.05-.51.34-3,.34-3.91a4.06,4.06,0,0,0-1.14-3.13,4.15,4.15,0,0,0-3-1A5.21,5.21,0,0,0,23.89,36c-1.31,1.36-1.88,3.69-2.1,5.45L20.26,54H13.33Z"/><path class="cls-2" d="M59.52,35.37a5.74,5.74,0,0,0-1.76-1.24,5,5,0,0,0-2.33-.51,3.49,3.49,0,0,0-2.32.79,2.23,2.23,0,0,0-.51,1.48,1.46,1.46,0,0,0,.51,1.24,5.3,5.3,0,0,0,2,.91l2.1.68A10.51,10.51,0,0,1,61,40.94a6.59,6.59,0,0,1,1.71,4.65,8.62,8.62,0,0,1-2.56,6.3,10.94,10.94,0,0,1-8.06,2.89,13.16,13.16,0,0,1-5.78-1.19,15.37,15.37,0,0,1-3.75-2.89l4.14-4.2a7.32,7.32,0,0,0,2.27,2,6.38,6.38,0,0,0,2.84.79,4.61,4.61,0,0,0,2.67-.73,2.77,2.77,0,0,0,1-2.16,2.08,2.08,0,0,0-.62-1.53,7.78,7.78,0,0,0-2.44-1.19L50.67,43a9,9,0,0,1-3.24-2,5.38,5.38,0,0,1-1.64-4.2A8,8,0,0,1,48.23,31a9.72,9.72,0,0,1,7-2.39,12.3,12.3,0,0,1,7.88,2.5Z"/><path class="cls-2" d="M75.63,35.32,73.36,54H66.44l2.27-18.67H66l.74-5.9h2.73l1-8.4h6.92l-1,8.4h4.76l-.73,5.9Z"/><path class="cls-2" d="M103.72,29.42h6.92l-3,24.57h-6.92l.4-3.18A11.28,11.28,0,0,1,98,53.59a8.74,8.74,0,0,1-4.6,1.19,10.83,10.83,0,0,1-8.06-3.12A11.75,11.75,0,0,1,82,43a15,15,0,0,1,3.8-10.5,13.19,13.19,0,0,1,9.7-3.86,9.85,9.85,0,0,1,4.88,1.19,7.22,7.22,0,0,1,2.9,2.78Zm-12,7.09a7.85,7.85,0,0,0-2.44,5.67,6.64,6.64,0,0,0,1.87,4.88,6.34,6.34,0,0,0,4.54,1.59,7.09,7.09,0,0,0,4.88-1.76A8.07,8.07,0,0,0,103,41a6.34,6.34,0,0,0-1.7-4.37,6.27,6.27,0,0,0-4.77-1.87A7,7,0,0,0,91.69,36.51Z"/><path class="cls-3" d="M129.25,16.14c3.17,0,6.64.28,9.19,2.78a8.4,8.4,0,0,1,2.44,6.47,8.85,8.85,0,0,1-1.59,5.5,7.18,7.18,0,0,1-3.69,2.9,10.57,10.57,0,0,1,4.48,2.78,7.8,7.8,0,0,1,2,5.61,11.38,11.38,0,0,1-3.07,8.17C136.74,52.79,133.5,54,127.71,54H115.23l4.66-37.85ZM123.35,48h3.17c2.67,0,5.17-.17,6.64-1.59a5.34,5.34,0,0,0,1.48-3.86,4.7,4.7,0,0,0-1.25-3.34c-1.42-1.37-4.14-1.65-6-1.65h-2.72Zm2-16.11h1.59c2.16,0,4.09-.23,5.5-1.71a5.33,5.33,0,0,0,1.42-3.57,4.08,4.08,0,0,0-1.64-3.46,6.5,6.5,0,0,0-3.86-1h-1.82Z"/><path class="cls-3" d="M166.3,29.42h6.92l-3,24.57h-6.92l.4-3.18a11.28,11.28,0,0,1-3.12,2.78,8.74,8.74,0,0,1-4.6,1.19,10.83,10.83,0,0,1-8.06-3.12A11.75,11.75,0,0,1,144.62,43a15,15,0,0,1,3.8-10.5,13.2,13.2,0,0,1,9.71-3.86A9.87,9.87,0,0,1,163,29.81a7.25,7.25,0,0,1,2.89,2.78Zm-12,7.09a7.85,7.85,0,0,0-2.44,5.67,6.64,6.64,0,0,0,1.87,4.88,6.34,6.34,0,0,0,4.54,1.59,7.09,7.09,0,0,0,4.88-1.76,8,8,0,0,0,2.44-5.9,6.34,6.34,0,0,0-1.7-4.37,6.27,6.27,0,0,0-4.77-1.87A7,7,0,0,0,154.27,36.51Z"/><path class="cls-3" d="M177.86,29.42h6.93l-.4,3.17a8.6,8.6,0,0,1,3-2.83,9.05,9.05,0,0,1,4.76-1.14c3.3,0,5.34,1,6.59,2.27a7.51,7.51,0,0,1,1.92,5.39,30.81,30.81,0,0,1-.45,4.2L198.58,54h-6.93l1.42-11.41c.06-.51.34-3,.34-3.91a4.06,4.06,0,0,0-1.13-3.13,4.17,4.17,0,0,0-3-1A5.22,5.22,0,0,0,185.41,36c-1.3,1.36-1.87,3.69-2.1,5.45L181.78,54h-6.92Z"/><path class="cls-3" d="M215.36,12.62l-3.12,25.31,10.22-8.51h8.45L217.8,40.31,228.41,54h-8.28l-7.21-10.1-1.58,1.24L210.26,54h-6.93l5.11-41.37Z"/><text class="cls-4" transform="translate(169.12 68.88)">your money</text></g></g></svg>