<?xml version="1.0" encoding="utf-8"?>
<!-- Generator: Adobe Illustrator 25.1.0, SVG Export Plug-In . SVG Version: 6.00 Build 0)  -->
<svg version="1.1" id="Layer_1" xmlns="http://www.w3.org/2000/svg" xmlns:xlink="http://www.w3.org/1999/xlink" x="0px" y="0px"
	 viewBox="0 0 1261.1 492.5" style="enable-background:new 0 0 1261.1 492.5;" xml:space="preserve">
<style type="text/css">
	.st0{fill:#6DBFE6;}
	.st1{fill:#FFFFFF;}
</style>
<path class="st0" d="M342.9,0C206.9,0,96.7,110.2,96.7,246.3s110.2,246.3,246.3,246.3s246.3-110.2,246.3-246.3S478.9,0,342.9,0z
	 M342.9,322.2c-41.9,0-75.9-34-75.9-75.9s34-75.9,75.9-75.9s75.9,34,75.9,75.9S384.9,322.2,342.9,322.2z"/>
<path class="st1" d="M36.9,106.7h39.5l49.3,148.5l49.8-148.5H215l35.7,213h-39.2l-22.8-134.8l-44.9,134.8h-36l-45-134.8L39.5,319.6
	H0L36.9,106.7z"/>
<path class="st1" d="M447,172h37.5v15c6.7-6.1,14.3-11.1,22.5-15c6.7-2.7,13.8-4.2,21-4.2c14-0.4,27.5,5,37.4,14.9
	c9.3,10.6,13.9,24.5,12.9,38.6v97.4h-36.5V254c0.5-11.8-0.3-23.5-2.3-35.1c-1.2-5.2-4.1-9.9-8.3-13.2c-4.2-3.1-9.3-4.7-14.5-4.6
	c-7.2-0.1-14.1,2.6-19.3,7.5c-5.7,5.7-9.6,12.9-11.2,20.8c-1.4,9.9-2,20-1.6,30v59.2H447V172z"/>
<path class="st1" d="M628.5,111.1c6.3-0.1,12.4,2.4,16.8,7c4.6,4.5,7.1,10.7,7,17.2c0.1,6.3-2.4,12.5-7,16.9
	c-8.7,9.1-23.2,9.4-32.3,0.7c-0.4-0.4-0.8-0.8-1.1-1.2c-9.3-9.4-9.3-24.6,0.1-33.9c4.4-4.3,10.2-6.8,16.3-6.9h0.1L628.5,111.1z
	 M610,172h37.1v147.7H610V172z"/>
<path class="st1" d="M664.4,172h13.2c0-19.4,0.3-30.9,0.9-34.4c0.7-7.5,4.4-14.5,10.3-19.3c7.2-5.3,15.9-7.9,24.8-7.5
	c8.9,0.2,17.8,2,26.1,5.3v28.2c-4.3-1.4-8.7-2.2-13.2-2.3c-3.4-0.3-6.8,0.7-9.5,2.7c-1.8,2.4-2.5,5.4-2.2,8.4v18.5h23.4V203h-23.4
	v116.3h-37.4V203.3h-13.2L664.4,172z"/>
<path class="st1" d="M783.4,367.3l27.4-58.6L754.6,172h37.9l38.3,92.8l42.3-92.7h38l-89.5,195.3L783.4,367.3z"/>
<path class="st1" d="M4.2,444.3c-2.6,0-3.9-1.3-3.9-4v-55.6c0-2.7,1.3-4,4-4h32.4c2.1,0,3.1,1,3.1,3s-1,3-3.1,3.1H7.5v22h27.2
	c2.1,0,3.2,1,3.2,3s-1.1,3-3.2,3.1H7.5v25.3C7.5,442.9,6.4,444.3,4.2,444.3z"/>
<path class="st1" d="M71.6,444.5c-3.9,0.1-7.7-0.9-11-2.8c-3.1-1.9-5.6-4.6-7.2-7.8c-3.4-7.6-3.4-16.2,0-23.8c1.6-3.2,4.1-6,7.2-7.8
	c3.3-1.9,7.1-2.9,11-2.8c3.8-0.1,7.6,0.9,10.9,2.8c3.1,1.8,5.6,4.6,7.2,7.8c3.4,7.6,3.4,16.3,0,23.8c-1.6,3.3-4.1,6-7.2,7.8
	C79.2,443.6,75.5,444.6,71.6,444.5z M71.6,438.7c3.7,0.1,7.3-1.5,9.7-4.3c2.4-2.9,3.7-7,3.7-12.4c0-5.4-1.2-9.5-3.7-12.4
	c-2.4-2.8-6-4.4-9.7-4.3c-3.7-0.2-7.4,1.4-9.8,4.3c-2.4,2.8-3.6,7-3.6,12.4c0,5.4,1.2,9.5,3.6,12.4
	C64.3,437.2,67.9,438.9,71.6,438.7L71.6,438.7z"/>
<path class="st1" d="M114,444.3c-2.4,0-3.7-1.3-3.7-3.8v-37.2c0-2.4,1.2-3.7,3.5-3.7c2.3,0,3.5,1.2,3.6,3.7v4.7
	c1.1-2.6,3.1-4.9,5.5-6.3c2.7-1.5,5.8-2.3,8.9-2.4c1.9-0.2,2.9,0.8,3,2.9s-0.9,3.2-3.2,3.5l-1.4,0.2c-4.1,0.4-7.2,1.6-9.4,3.9
	s-3.2,5.3-3.2,9.1v21.6C117.7,443,116.5,444.3,114,444.3z"/>
<path class="st1" d="M209.4,444.5c-10.1,0-17.8-2.9-23.1-8.6c-5.3-5.7-7.9-13.6-7.9-23.7c-0.2-5.9,1.1-11.8,3.6-17.2
	c2.2-4.7,5.8-8.5,10.3-11.2c4.5-2.6,9.8-3.9,16.2-3.9c3.7,0,7.4,0.5,10.9,1.6c3.4,1,6.6,2.7,9.4,5c0.8,0.5,1.3,1.3,1.4,2.2
	c0.1,0.8-0.1,1.7-0.5,2.4c-0.4,0.7-1.1,1.2-1.9,1.5c-0.9,0.2-1.8,0-2.5-0.5c-2.3-1.8-5-3.2-7.8-4.1c-2.9-0.9-6-1.3-9.1-1.3
	c-7.1,0-12.6,2.2-16.4,6.7s-5.7,10.8-5.7,19c0,8.3,2,14.7,5.9,19.1s9.8,6.6,17.6,6.6c5,0,9.9-0.9,14.6-2.6v-18.7h-12.8
	c-2.1,0-3.2-1-3.2-3c0-2,1.1-2.9,3.2-2.9h16c2.1,0,3.1,1,3.1,3.1v23.3c0,1.8-0.6,3-2,3.6c-2.9,1.2-5.9,2.1-9,2.6
	C216.1,444.1,212.7,444.4,209.4,444.5z"/>
<path class="st1" d="M269.6,444.5c-3.9,0.1-7.7-0.9-11-2.8c-3.1-1.9-5.6-4.6-7.2-7.8c-3.4-7.6-3.4-16.2,0-23.8
	c1.6-3.2,4.1-6,7.2-7.8c6.8-3.7,15.1-3.7,21.9,0c3.1,1.8,5.6,4.6,7.2,7.8c3.4,7.6,3.4,16.3,0,23.8c-1.6,3.3-4.1,6-7.2,7.8
	C277.2,443.6,273.4,444.5,269.6,444.5z M269.6,438.7c3.7,0.1,7.3-1.5,9.7-4.3c2.4-2.9,3.7-7,3.7-12.4c0-5.4-1.2-9.5-3.7-12.4
	c-4.9-5.4-13.3-5.7-18.7-0.8c-0.3,0.3-0.5,0.5-0.8,0.8c-2.4,2.8-3.6,7-3.6,12.4s1.2,9.5,3.6,12.4
	C262.2,437.2,265.8,438.9,269.6,438.7L269.6,438.7z"/>
<path class="st1" d="M323.9,444.3c-2.1,0-3.6-1.2-4.6-3.5l-15.4-36.1c-0.6-1.1-0.6-2.4-0.1-3.6c0.5-1,1.6-1.5,3.2-1.5s2.9,1,3.7,2.9
	l13.5,32.9l13.7-32.9c0.3-0.9,0.8-1.6,1.4-2.2c0.7-0.5,1.5-0.7,2.3-0.6c1.1-0.1,2.3,0.5,2.8,1.5c0.5,1.1,0.4,2.4-0.1,3.5l-15.6,36.1
	C327.6,443.1,326,444.3,323.9,444.3z"/>
<path class="st1" d="M379.8,444.5c-6.8,0-12.3-2-16.3-6c-4-4-6-9.5-6-16.4c-0.1-4.1,0.8-8.2,2.7-11.8c1.7-3.3,4.2-6,7.4-8
	c3.3-1.9,7-2.9,10.8-2.8c5.9,0,10.5,1.9,13.8,5.7c3.3,3.8,5,9,5.1,15.5c0,1.9-1,2.8-3.1,2.8h-29.6c0.2,4.9,1.7,8.7,4.3,11.3
	c2.6,2.6,6.3,3.9,10.9,3.9c2,0,4-0.3,6-0.8c2.1-0.6,4.1-1.5,5.9-2.7c1.4-0.9,2.5-1.1,3.4-0.5c0.9,0.5,1.4,1.4,1.4,2.5
	c0,1.2-0.7,2.3-1.8,2.9c-2.1,1.5-4.5,2.6-7,3.3C385.1,444.1,382.5,444.5,379.8,444.5z M378.6,404.8c-4.1,0-7.4,1.3-9.7,3.8
	c-2.5,2.8-4,6.4-4.2,10.1H391c-0.2-4.4-1.3-7.8-3.4-10.3S382.5,404.8,378.6,404.8z"/>
<path class="st1" d="M418.5,444.3c-2.4,0-3.7-1.3-3.7-3.8v-37.2c0-2.4,1.2-3.7,3.5-3.7c2.3,0,3.5,1.2,3.6,3.7v4.7
	c1.1-2.6,3.1-4.9,5.5-6.3c2.7-1.5,5.8-2.3,8.9-2.4c1.9-0.2,2.9,0.8,3,2.9s-0.9,3.2-3.2,3.5l-1.4,0.2c-4.1,0.4-7.2,1.6-9.4,3.9
	s-3.2,5.3-3.2,9.1v21.6C422.2,443,420.9,444.3,418.5,444.3z"/>
<path class="st1" d="M457.5,444.3c-2.4,0-3.6-1.3-3.6-3.8v-37.2c0-2.4,1.2-3.7,3.5-3.7c2.4,0,3.6,1.2,3.6,3.7v4.4
	c1.3-2.6,3.5-4.8,6.1-6.2c2.7-1.4,5.8-2.1,8.8-2c10.3,0,15.4,5.7,15.4,17.1v23.9c0,2.5-1.2,3.8-3.6,3.8s-3.6-1.3-3.7-3.8v-23.5
	c0-4.1-0.8-7-2.4-8.9c-1.6-1.9-4.1-2.8-7.5-2.8c-3.6-0.2-7,1.2-9.5,3.7c-2.3,2.5-3.5,5.8-3.5,9.9v21.6
	C461.2,443,459.9,444.3,457.5,444.3z"/>
<path class="st1" d="M515.5,444.3c-2.4,0-3.6-1.3-3.6-3.8v-37.2c0-2.4,1.2-3.7,3.5-3.7c2.4,0,3.6,1.2,3.6,3.7v4.3
	c1.2-2.5,3.1-4.6,5.4-6c2.5-1.4,5.3-2.2,8.1-2.1c6.8,0,11.1,2.9,13,8.8c1.3-2.7,3.3-4.9,5.8-6.5c2.7-1.6,5.7-2.4,8.8-2.4
	c9.6,0,14.5,5.7,14.5,17.1v23.9c0,2.5-1.2,3.8-3.7,3.8c-2.4,0-3.6-1.3-3.6-3.8V417c0-4-0.7-6.9-2.1-8.8c-1.4-1.9-3.7-2.8-6.9-2.8
	c-3.2-0.1-6.3,1.3-8.4,3.8c-2.1,2.5-3.1,5.8-3.1,10v21.4c0,2.5-1.2,3.8-3.7,3.8c-2.4,0-3.6-1.3-3.6-3.8V417c0-4-0.7-6.9-2.1-8.8
	c-1.4-1.9-3.7-2.8-6.9-2.8c-3.2-0.1-6.3,1.3-8.4,3.7c-2.1,2.5-3.1,5.8-3.1,10v21.4C519.2,443,518,444.3,515.5,444.3z"/>
<path class="st1" d="M614.9,444.5c-6.8,0-12.3-2-16.2-6c-4-4-6-9.5-6-16.4c-0.1-4.1,0.8-8.2,2.7-11.9c1.7-3.3,4.2-6,7.4-8
	c3.3-1.9,7-2.9,10.8-2.8c5.9,0,10.5,1.9,13.8,5.7s5,9,5,15.6c0,1.9-1,2.8-3.1,2.8h-29.5c0.2,4.9,1.7,8.7,4.3,11.3
	c2.6,2.6,6.3,3.9,10.9,3.9c2,0,4-0.3,6-0.8c2.1-0.6,4.1-1.5,5.9-2.7c1.4-0.9,2.5-1.1,3.4-0.5c0.9,0.5,1.4,1.4,1.4,2.5
	c0,1.2-0.7,2.3-1.8,2.9c-2.1,1.5-4.5,2.6-7,3.3C620.2,444.1,617.6,444.5,614.9,444.5z M613.7,404.8c-4.1,0-7.4,1.3-9.7,3.8
	c-2.5,2.8-4,6.3-4.2,10.1h26.3c-0.2-4.4-1.3-7.8-3.4-10.3S617.6,404.8,613.7,404.8L613.7,404.8z"/>
<path class="st1" d="M653.5,444.3c-2.4,0-3.6-1.3-3.6-3.8v-37.2c0-2.4,1.2-3.7,3.5-3.7c2.3,0,3.5,1.2,3.6,3.7v4.4
	c1.3-2.6,3.5-4.8,6.1-6.2c2.7-1.4,5.8-2.1,8.8-2c10.3,0,15.4,5.7,15.4,17.1v23.9c0,2.5-1.2,3.8-3.6,3.8s-3.6-1.3-3.7-3.8v-23.5
	c0-4.1-0.8-7-2.4-8.9c-1.6-1.9-4.1-2.8-7.5-2.8c-3.6-0.2-7,1.2-9.5,3.7c-2.4,2.5-3.5,5.8-3.5,9.9v21.6
	C657.2,443,656,444.3,653.5,444.3z"/>
<path class="st1" d="M725.2,444.5c-5.1,0-9-1.4-11.5-4.1c-2.6-2.7-3.8-6.6-3.8-11.7v-22.8h-6c-2.1,0-3.1-1-3.1-2.9s1-2.8,3.1-2.8h6
	V390c0-2.4,1.2-3.7,3.7-3.7s3.6,1.2,3.6,3.7v10.3h11.2c2.1,0,3.1,0.9,3.1,2.8s-1,2.9-3.1,2.9h-11.2v22c0,3.4,0.7,6,2.2,7.7
	s3.7,2.6,7,2.6c1,0,1.9-0.1,2.8-0.4c0.7-0.2,1.4-0.3,2.1-0.4c0.5-0.1,1,0.1,1.3,0.5c0.4,0.6,0.6,1.4,0.5,2.1c0,0.7-0.1,1.4-0.4,2
	c-0.3,0.6-0.8,1-1.4,1.3c-0.9,0.3-1.9,0.5-2.8,0.7C727.4,444.3,726.3,444.4,725.2,444.5z"/>
<path class="st1" d="M781.3,443.6c-2.7,0-4-1.3-4-4v-54.9c0-2.7,1.3-4,4-4h33.2c2.1,0,3.1,1,3.1,3s-1,3-3.1,3.1h-30.1v21.9h28.2
	c2.1,0,3.1,1,3.1,3s-1,3.1-3.1,3.1h-28.2v22.7h30.1c2.1,0,3.1,1,3.1,3c0,2-1,3-3.1,3.1L781.3,443.6z"/>
<path class="st1" d="M839.3,444.3c-2.4,0-3.6-1.3-3.6-3.8v-37.2c0-2.4,1.2-3.7,3.5-3.7c2.3,0,3.5,1.2,3.6,3.7v4.3
	c1.2-2.5,3.1-4.6,5.5-6c2.5-1.4,5.3-2.2,8.1-2.1c6.8,0,11.1,2.9,13,8.8c1.3-2.7,3.3-4.9,5.8-6.5c2.7-1.6,5.7-2.4,8.8-2.4
	c9.6,0,14.5,5.7,14.5,17.1v23.9c0,2.5-1.2,3.8-3.7,3.8c-2.4,0-3.6-1.3-3.6-3.8V417c0-4-0.7-6.9-2.1-8.8c-1.4-1.9-3.7-2.8-6.9-2.8
	c-3.2-0.1-6.3,1.3-8.4,3.8c-2.1,2.5-3.1,5.8-3.1,10v21.4c0,2.5-1.2,3.8-3.7,3.8s-3.6-1.3-3.6-3.8V417c0-4-0.7-6.9-2.1-8.8
	c-1.4-1.9-3.7-2.8-6.9-2.8c-3.2-0.1-6.4,1.2-8.4,3.8c-2.1,2.5-3.1,5.8-3.1,10v21.4C842.9,443,841.7,444.3,839.3,444.3z"/>
<path class="st1" d="M922.7,460.4c-2.4,0-3.6-1.2-3.6-3.7v-53.4c0-2.4,1.2-3.7,3.5-3.7c2.4,0,3.7,1.2,3.7,3.7v4.6
	c1.2-2.6,3.3-4.8,5.8-6.2c2.7-1.6,5.9-2.3,9-2.3c3.6-0.1,7.1,0.9,10.1,2.7c2.9,1.9,5.3,4.6,6.7,7.8c3.2,7.7,3.2,16.3,0,23.9
	c-1.4,3.2-3.8,5.9-6.7,7.8c-3,1.9-6.6,2.9-10.1,2.8c-3.1,0.1-6.2-0.7-8.9-2.2c-2.5-1.4-4.6-3.6-5.8-6.2v20.6
	C926.3,459.1,925.1,460.4,922.7,460.4z M939.5,438.7c3.7,0.1,7.3-1.5,9.7-4.3c2.4-2.9,3.7-7,3.7-12.4c0-5.4-1.2-9.5-3.7-12.4
	c-4.9-5.4-13.2-5.7-18.6-0.8c-0.3,0.3-0.6,0.5-0.8,0.8c-2.4,2.8-3.7,7-3.7,12.4c0,5.4,1.2,9.5,3.7,12.4
	C932.2,437.2,935.8,438.8,939.5,438.7z"/>
<path class="st1" d="M991.5,444.5c-4.3,0-7.6-1.3-9.8-3.9c-2.3-2.6-3.4-6.4-3.3-11.3v-45.5c0-2.4,1.2-3.7,3.6-3.7s3.6,1.2,3.7,3.7
	v45c0,6.4,2.5,9.6,7.6,9.5c0.5,0,0.9,0,1.4-0.1c0.4-0.1,0.8-0.1,1.3-0.1c0.5-0.1,1,0.1,1.4,0.5c0.3,0.7,0.5,1.4,0.4,2.1
	c0.2,1.7-1.1,3.3-2.8,3.5c-0.1,0-0.1,0-0.2,0c-0.5,0.1-1,0.2-1.5,0.2C992.5,444.4,991.9,444.5,991.5,444.5z"/>
<path class="st1" d="M1029.4,444.5c-3.9,0.1-7.7-0.9-11-2.8c-3.1-1.9-5.6-4.6-7.2-7.8c-3.4-7.6-3.4-16.2,0-23.8
	c1.6-3.2,4.1-6,7.2-7.8c6.8-3.7,15.1-3.7,21.9,0c3.1,1.8,5.6,4.6,7.2,7.8c3.4,7.6,3.4,16.2,0,23.8c-1.6,3.3-4.1,6-7.2,7.8
	C1037,443.6,1033.2,444.6,1029.4,444.5z M1029.4,438.7c3.7,0.1,7.3-1.5,9.7-4.3c2.4-2.9,3.7-7,3.7-12.4c0-5.4-1.2-9.5-3.7-12.4
	c-4.9-5.4-13.3-5.8-18.7-0.8c-0.3,0.3-0.6,0.5-0.8,0.8c-2.4,2.8-3.6,7-3.6,12.4c0,5.4,1.2,9.5,3.6,12.4
	C1022,437.2,1025.6,438.9,1029.4,438.7L1029.4,438.7z"/>
<path class="st1" d="M1077.2,460.4c-1.2,0.1-2.3-0.5-2.8-1.6c-0.5-1.1-0.4-2.4,0.1-3.5l5.4-12.3l-16.4-38.2c-0.6-1.1-0.6-2.5,0-3.6
	c0.6-1,1.7-1.5,3.3-1.5s2.9,1,3.7,2.9l13.5,32.9l13.6-32.9c0.3-0.9,0.8-1.6,1.5-2.2c0.7-0.5,1.5-0.7,2.3-0.6
	c1.2-0.1,2.3,0.5,2.8,1.5c0.5,1.1,0.4,2.4-0.1,3.5l-22.8,52.8c-0.3,0.9-0.9,1.6-1.6,2.2C1078.9,460.2,1078,460.4,1077.2,460.4z"/>
<path class="st1" d="M1139.5,444.5c-6.9,0-12.3-2-16.3-6s-6-9.5-6-16.4c-0.1-4.1,0.8-8.2,2.7-11.8c1.7-3.3,4.2-6,7.4-8
	c3.3-1.9,7-2.9,10.8-2.8c5.9,0,10.5,1.9,13.8,5.7c3.3,3.8,5,9,5,15.6c0,1.9-1,2.8-3.1,2.8h-29.5c0.2,4.9,1.7,8.7,4.3,11.3
	s6.3,3.9,10.9,3.9c2,0,4-0.3,6-0.8c2.1-0.6,4.1-1.5,5.9-2.7c1.4-0.9,2.5-1.1,3.4-0.5c0.9,0.5,1.4,1.4,1.4,2.5c0,1.2-0.7,2.3-1.8,2.9
	c-2.1,1.5-4.5,2.6-7,3.3C1144.8,444.1,1142.2,444.5,1139.5,444.5z M1138.3,404.8c-4.1,0-7.3,1.3-9.7,3.8c-2.5,2.8-4,6.4-4.2,10.1
	h26.3c-0.2-4.4-1.3-7.8-3.4-10.3S1142.2,404.8,1138.3,404.8z"/>
<path class="st1" d="M1194.1,444.5c-6.8,0-12.3-2-16.2-6s-6-9.5-6-16.4c-0.1-4.1,0.8-8.2,2.7-11.8c1.7-3.3,4.2-6,7.4-8
	c3.3-1.9,7-2.9,10.8-2.8c5.9,0,10.5,1.9,13.8,5.7c3.3,3.8,5,9,5,15.6c0,1.9-1,2.8-3.1,2.8h-29.5c0.2,4.9,1.7,8.7,4.3,11.3
	c2.6,2.6,6.2,3.9,10.9,3.9c2,0,4-0.3,6-0.8c2.1-0.6,4.1-1.5,5.9-2.7c1.4-0.9,2.5-1.1,3.4-0.5c0.9,0.5,1.4,1.4,1.4,2.5
	c0,1.2-0.7,2.3-1.8,2.9c-2.1,1.5-4.5,2.6-7,3.3C1199.4,444.1,1196.8,444.5,1194.1,444.5z M1192.9,404.8c-4.1,0-7.3,1.3-9.7,3.8
	c-2.5,2.8-4,6.3-4.2,10.1h26.3c-0.2-4.4-1.3-7.8-3.4-10.3S1196.8,404.8,1192.9,404.8z"/>
<path class="st1" d="M1243.8,444.5c-2.7,0-5.4-0.3-8.1-1c-2.7-0.7-5.2-1.8-7.5-3.4c-1-0.5-1.6-1.5-1.6-2.5c0-1,0.4-1.9,1.2-2.5
	c0.9-0.6,2.1-0.6,3,0c2.1,1.3,4.4,2.3,6.7,3c2.1,0.6,4.3,0.8,6.5,0.8c3.4,0,5.9-0.6,7.7-1.9c1.7-1.2,2.6-3.1,2.6-5.1
	c0.1-1.5-0.6-3-1.7-4c-1.6-1.2-3.4-2-5.4-2.3l-8.1-1.8c-7.4-1.6-11.1-5.4-11.1-11.4c-0.1-3.7,1.7-7.3,4.7-9.5
	c3.1-2.4,7.2-3.6,12.3-3.6c2.5,0,5,0.3,7.4,1c2.3,0.7,4.5,1.8,6.4,3.3c0.9,0.5,1.4,1.5,1.3,2.6c-0.1,1-0.6,1.8-1.4,2.4
	c-0.9,0.6-2.1,0.5-2.9-0.2c-1.7-1.1-3.5-2-5.4-2.6c-1.8-0.6-3.6-0.8-5.4-0.9c-3.3,0-5.9,0.7-7.6,2c-1.7,1.2-2.6,3.1-2.6,5.2
	c0,3.3,2.2,5.5,6.6,6.4l8.1,1.7c3.8,0.8,6.7,2.2,8.7,4c2,1.9,3.1,4.6,3,7.4c0.1,3.7-1.7,7.3-4.7,9.4
	C1253.3,443.3,1249,444.5,1243.8,444.5z"/>
</svg>
