<svg xmlns="http://www.w3.org/2000/svg" width="267.417" height="56.736" viewBox="0 0 267.417 56.736">
  <path id="Path_214" data-name="Path 214" d="M214.206,48.471a7.673,7.673,0,0,0,.883,3.042H206a12.968,12.968,0,0,1-.414-1.593,13.431,13.431,0,0,1-.223-1.592,11.733,11.733,0,0,1-5.073,3.105,22.24,22.24,0,0,1-5.885.884,17.035,17.035,0,0,1-4.045-.478,9.626,9.626,0,0,1-7.023-7.246,12.726,12.726,0,0,1-.151-2,13.727,13.727,0,0,1,.071-1.394,9.443,9.443,0,0,1,5.837-7.294s.74-.294,1.162-.406a37.4,37.4,0,0,1,4.037-.852q2.031-.319,3.982-.51a23.748,23.748,0,0,0,3.488-.573q.382-.095.716-.207a3.743,3.743,0,0,0,.191-6.952H202.6a8.272,8.272,0,0,0-3.281-.573,9.343,9.343,0,0,0-2.723.35,4.364,4.364,0,0,0-2.842,2.636,10.347,10.347,0,0,0-.55,2.652h-8.99v-.191a10.846,10.846,0,0,1,3.711-8.058l.087-.072.1-.072.1-.072a10.98,10.98,0,0,1,1.154-.8A15.5,15.5,0,0,1,194.21,18.4a27.644,27.644,0,0,1,5.424-.541,36.6,36.6,0,0,1,5,.35,15.824,15.824,0,0,1,3.783.987,9.278,9.278,0,0,1,5.574,8.528v16.5a33.925,33.925,0,0,0,.255,4.244m-9.253-12.979a4.071,4.071,0,0,1-1.426.8,14.892,14.892,0,0,1-1.839.478c-.654.127-1.346.215-2.062.319a43.243,43.243,0,0,0-4.4.876l-.263.08a4.259,4.259,0,0,0-2.7,2.89s-.1.462-.127.645v.836a2.912,2.912,0,0,0,0,.318,4.146,4.146,0,0,0,.525,1.449,4.258,4.258,0,0,0,2.269,1.871,4.63,4.63,0,0,0,.613.167,12.57,12.57,0,0,0,2.087.167,7.967,7.967,0,0,0,4.117-.884,5.939,5.939,0,0,0,2.158-2.118,6.8,6.8,0,0,0,.851-2.5,17.105,17.105,0,0,0,.16-2.023ZM125.817,51.513a12.777,12.777,0,0,1-.414-1.593,13.423,13.423,0,0,1-.223-1.592,11.733,11.733,0,0,1-5.073,3.105,22.193,22.193,0,0,1-5.885.884,17.115,17.115,0,0,1-4.045-.478,9.634,9.634,0,0,1-7.016-7.246,12.725,12.725,0,0,1-.151-2,13.725,13.725,0,0,1,.071-1.394,9.438,9.438,0,0,1,5.837-7.294s.741-.294,1.163-.406a37.247,37.247,0,0,1,4.021-.852q2.023-.319,3.981-.51a23.575,23.575,0,0,0,3.48-.573c.256-.063.494-.133.717-.207a3.743,3.743,0,0,0,.191-6.952H122.4a8.282,8.282,0,0,0-3.281-.573,9.392,9.392,0,0,0-2.723.35,4.365,4.365,0,0,0-2.843,2.636,10.345,10.345,0,0,0-.549,2.652h-8.967v-.191a10.844,10.844,0,0,1,3.695-8.019l.088-.072.1-.072.1-.072a11.159,11.159,0,0,1,1.155-.8,15.525,15.525,0,0,1,4.849-1.808,27.756,27.756,0,0,1,5.415-.542,36.725,36.725,0,0,1,5,.351,15.771,15.771,0,0,1,3.775.955,9.558,9.558,0,0,1,5.447,6.872,9.442,9.442,0,0,1,.143,1.656V44.227a33.932,33.932,0,0,0,.256,4.244,7.653,7.653,0,0,0,.883,3.042Zm-1.027-16.03a4.07,4.07,0,0,1-1.425.8,14.906,14.906,0,0,1-1.84.478c-.653.127-1.346.215-2.062.319a43.087,43.087,0,0,0-4.4.876l-.262.08a4.26,4.26,0,0,0-2.7,2.89s-.1.462-.127.645c0,.042,0,.085,0,.127v1.027a4.188,4.188,0,0,0,.525,1.449,4.26,4.26,0,0,0,2.27,1.871,4.6,4.6,0,0,0,.692.143,12.61,12.61,0,0,0,2.087.167,7.96,7.96,0,0,0,4.117-.884,5.939,5.939,0,0,0,2.158-2.118,6.8,6.8,0,0,0,.851-2.5,17.107,17.107,0,0,0,.16-2.023ZM266.578,24.144a9.345,9.345,0,0,0-2.468-3.639,9.741,9.741,0,0,0-3.8-2.031,17.454,17.454,0,0,0-4.778-.637,10.536,10.536,0,0,0-5.924,1.648,13.969,13.969,0,0,0-3.981,3.8,7.965,7.965,0,0,0-3.9-4.244,13.2,13.2,0,0,0-5.67-1.2,11.6,11.6,0,0,0-5.733,1.394,12.62,12.62,0,0,0-3.894,3.416V18.754h-9.038V51.521h9V32.506a9.255,9.255,0,0,1,.693-3.894,6.277,6.277,0,0,1,1.68-2.278,5.579,5.579,0,0,1,2.031-1.075l.613-.151a5.684,5.684,0,0,1,.868-.072,5.575,5.575,0,0,1,5.574,4.913v.31q.064,1.425.064,2.883V51.521h9V33.27a20.426,20.426,0,0,1,.223-3.01,7.985,7.985,0,0,1,.471-1.784,5.574,5.574,0,0,1,10.686,1.139v.239q.127,1.457.127,3.105V51.521h9V29.591a14.841,14.841,0,0,0-.884-5.423m-99.011,1.648a10.566,10.566,0,0,0-1.872-4.244A8.756,8.756,0,0,0,162,18.849a15.3,15.3,0,0,0-5.924-.979,12.49,12.49,0,0,0-3.863.613,11.95,11.95,0,0,0-5.447,3.814c-.143.191-.279.39-.414.6V18.738h-8.99V51.529h9V34.361q0-5.008,1.649-7.166a5.013,5.013,0,0,1,.414-.478,6.123,6.123,0,0,1,2.732-1.808,5.964,5.964,0,0,1,7.429,3.822,15.594,15.594,0,0,1,.518,4.332V51.529h9V31.383a26.457,26.457,0,0,0-.533-5.574m-67.557,8.95a10.148,10.148,0,0,0-2.93-3.3,15.235,15.235,0,0,0-4.125-2.071,40.469,40.469,0,0,0-4.706-1.306q-2.389-.509-4.778-1a28.977,28.977,0,0,1-4.125-1.115l-.558-.215-.454-.2a9.024,9.024,0,0,1-.868-.462,3.846,3.846,0,0,1,.669-6.8,10.479,10.479,0,0,1,2.19-.51,19.009,19.009,0,0,1,2.19-.151,12.01,12.01,0,0,1,5.192,1.075,5.473,5.473,0,0,1,2.883,4.228h9.149a13.176,13.176,0,0,0-1.879-5.646,12.441,12.441,0,0,0-3.767-3.806,16.02,16.02,0,0,0-5.072-2.11,25.912,25.912,0,0,0-5.885-.653,31.672,31.672,0,0,0-5.654.542A17.4,17.4,0,0,0,72.1,13.148a12.054,12.054,0,0,0-3.981,3.536,9.034,9.034,0,0,0-1.592,5.423,10.668,10.668,0,0,0,1.083,4.969,9.594,9.594,0,0,0,2.883,3.344A15.277,15.277,0,0,0,74.568,32.5,43.818,43.818,0,0,0,79.3,33.8q2.389.542,4.69,1A28.488,28.488,0,0,1,88.1,35.914a8.665,8.665,0,0,1,2.875,1.648,4.173,4.173,0,0,1,.186,5.9c-.06.064-.122.125-.186.185a5.774,5.774,0,0,1-1.784,1.107,12.287,12.287,0,0,1-2.962.733,23.647,23.647,0,0,1-2.8.191,11.489,11.489,0,0,1-6.076-1.537q-2.492-1.537-2.9-5.383H65.689a13.658,13.658,0,0,0,1.425,6.116,12.438,12.438,0,0,0,3.695,4.308,16.279,16.279,0,0,0,5.574,2.572,27.294,27.294,0,0,0,6.952.8,29.08,29.08,0,0,0,6.235-.693,19.109,19.109,0,0,0,5.741-2.23,12.8,12.8,0,0,0,4.2-3.982,10.661,10.661,0,0,0,1.593-6,9.965,9.965,0,0,0-1.122-4.921m80.561-28.46h-9V51.513h9ZM25.611,41.448a30.946,30.946,0,0,0-.215,4.937V56.737H35.788a3.062,3.062,0,0,0,1.234-.39l.08-.048a3.377,3.377,0,0,0,1.648-2.947V49.244a14.186,14.186,0,0,1,.94-5.693L47.2,31.359a3.363,3.363,0,0,0,.581-1.9v-.048a2.667,2.667,0,0,0-.43-1.513l-.072-.079C33.519,9.357,27.077.479,26.9.24A1.086,1.086,0,0,0,26.8.1a.245.245,0,0,0-.191-.1.206.206,0,0,0-.167.072l-.111.175-.143.231v.04c-1.887,3.265.064,6.123,1.393,8.56.661,1.25,1.3,2.389,1.935,3.416,1.337,2.182,2.962,4.65,4.507,7.127a9.811,9.811,0,0,1,1.9,5.924,12.042,12.042,0,0,1-2.389,6.88c-1.664,2.6-3.822,3.981-6.171,6.163a5.09,5.09,0,0,0-1.744,2.85M20.4,38.6c-2.349-2.166-4.475-3.559-6.171-6.163a12.042,12.042,0,0,1-2.389-6.88,9.817,9.817,0,0,1,1.9-5.925c1.545-2.476,3.185-4.945,4.507-7.127.637-1.051,1.274-2.174,1.935-3.416,1.322-2.444,3.3-5.3,1.409-8.568V.479L21.431.256,21.312.081a.208.208,0,0,0-.159-.072.247.247,0,0,0-.191.1,1.187,1.187,0,0,0-.1.136C20.706.479,14.233,9.357.5,27.816l-.072.056A2.66,2.66,0,0,0,0,29.408v.056a3.36,3.36,0,0,0,.573,1.927L8.085,43.582a14.734,14.734,0,0,1,.939,5.694v4.109A3.376,3.376,0,0,0,10.7,56.3l.072.048a3.064,3.064,0,0,0,1.234.39h10.36V46.385a30.723,30.723,0,0,0-.215-4.937,5.074,5.074,0,0,0-1.736-2.85m3.48-22.551a9.393,9.393,0,1,1-.008,0h.008" transform="translate(-0.002 -0.001)" fill="#008bce"/>
</svg>
