<svg xmlns="http://www.w3.org/2000/svg" xmlns:xlink="http://www.w3.org/1999/xlink" width="166.1" height="47.1" viewBox="0 0 166.1 47.1">
  <defs>
    <filter id="wiftouch" x="32.1" y="15.1" width="134" height="32" filterUnits="userSpaceOnUse">
      <feOffset dx="0.2" dy="0.2" input="SourceAlpha"/>
      <feGaussianBlur stdDeviation="0.1" result="blur"/>
      <feFlood flood-opacity="0.161" result="color"/>
      <feComposite operator="out" in="SourceGraphic" in2="blur"/>
      <feComposite operator="in" in="color"/>
      <feComposite operator="in" in2="SourceGraphic"/>
    </filter>
    <filter id="Path_1" x="0" y="0" width="29.429" height="39.603" filterUnits="userSpaceOnUse">
      <feOffset dx="0.2" dy="0.2" input="SourceAlpha"/>
      <feGaussianBlur stdDeviation="0.1" result="blur-2"/>
      <feFlood flood-opacity="0.161"/>
      <feComposite operator="in" in2="blur-2"/>
      <feComposite in="SourceGraphic"/>
    </filter>
    <filter id="Rectangle_1" x="12.297" y="7.409" width="6.98" height="6.98" filterUnits="userSpaceOnUse">
      <feOffset dx="0.2" dy="0.2" input="SourceAlpha"/>
      <feGaussianBlur stdDeviation="0.1" result="blur-3"/>
      <feFlood flood-opacity="0.161"/>
      <feComposite operator="in" in2="blur-3"/>
      <feComposite in="SourceGraphic"/>
    </filter>
    <filter id="Rectangle_2" x="9.207" y="24.509" width="6.38" height="6.38" filterUnits="userSpaceOnUse">
      <feOffset dx="0.2" dy="0.2" input="SourceAlpha"/>
      <feGaussianBlur stdDeviation="0.1" result="blur-4"/>
      <feFlood flood-opacity="0.161" result="color-2"/>
      <feComposite operator="out" in="SourceGraphic" in2="blur-4"/>
      <feComposite operator="in" in="color-2"/>
      <feComposite operator="in" in2="SourceGraphic"/>
    </filter>
  </defs>
  <g id="Group_2" data-name="Group 2" transform="translate(-657.9 -384.9)">
    <g data-type="innerShadowGroup">
      <text id="wiftouch-2" data-name="wiftouch" transform="translate(690 424)" fill="#e0e0e0" font-size="32" font-family="CoHeadline-Regular, Co Headline"><tspan x="0" y="0">wiftouch</tspan></text>
      <g transform="matrix(1, 0, 0, 1, 657.9, 384.9)" filter="url(#wiftouch)">
        <text id="wiftouch-3" data-name="wiftouch" transform="translate(32.1 39.1)" fill="#fff" font-size="32" font-family="CoHeadline-Regular, Co Headline"><tspan x="0" y="0">wiftouch</tspan></text>
      </g>
    </g>
    <g id="Group_1" data-name="Group 1">
      <g transform="matrix(1, 0, 0, 1, 657.9, 384.9)" filter="url(#Path_1)">
        <path id="Path_1-2" data-name="Path 1" d="M497.73,343.65a10.87,10.87,0,0,0-1.32-1.33A10.375,10.375,0,0,0,494.3,341a15.68,15.68,0,0,0-6.9-1.49,12.9,12.9,0,0,0-3.7.46,6.47,6.47,0,0,0-2.41,1.27,4.84,4.84,0,0,0-1.33,1.84,5.89,5.89,0,0,0-.4,2.17,4.38,4.38,0,0,0,1.62,3.65,13.83,13.83,0,0,0,5,2.14l4.54,1.13a30.709,30.709,0,0,1,4.71,1.52,12.818,12.818,0,0,1,3.49,2.11,8.54,8.54,0,0,1,2.19,2.92,9.559,9.559,0,0,1,.76,3.95,12.3,12.3,0,0,1-.81,4.54,9.11,9.11,0,0,1-2.52,3.54,12.15,12.15,0,0,1-4.38,2.33,21.568,21.568,0,0,1-6.41.84A26.51,26.51,0,0,1,477.5,372a18.253,18.253,0,0,1-2.95-1.48,15.92,15.92,0,0,1-1.48-1.06,4.541,4.541,0,0,1,.491-2.6,4.877,4.877,0,0,1,2.209-1.562c.29.21.76.55,1.41,1a14.509,14.509,0,0,0,2.46,1.32,23,23,0,0,0,3.49,1.16,17.932,17.932,0,0,0,4.54.52q4.44,0,6.33-1.6a5.32,5.32,0,0,0,1.89-4.3,4.66,4.66,0,0,0-2-4,8.431,8.431,0,0,0-2.19-1.16,26.371,26.371,0,0,0-2.71-.84l-4.81-1.25a27,27,0,0,1-3.92-1.35,13.539,13.539,0,0,1-3.33-2,9.2,9.2,0,0,1-2.33-2.92,9,9,0,0,1-.86-4.08,11.831,11.831,0,0,1,.7-4.06,8.811,8.811,0,0,1,2.33-3.46,11.9,11.9,0,0,1,4.19-2.43,18.619,18.619,0,0,1,6.3-.92,30.119,30.119,0,0,1,4.44.29,22.636,22.636,0,0,1,3.22.73,15.008,15.008,0,0,1,2.16.87,9.142,9.142,0,0,1,1.27.76,4.3,4.3,0,0,1,1.33,1.38,2.81,2.81,0,0,1,.4,1.38,2.66,2.66,0,0,1-.27,1.19,4.7,4.7,0,0,1-.65,1,4.8,4.8,0,0,1-.78.73C498.14,343.39,497.91,343.54,497.73,343.65Z" transform="translate(-472.94 -334.82)" fill="#ff4c42"/>
      </g>
      <g transform="matrix(1, 0, 0, 1, 657.9, 384.9)" filter="url(#Rectangle_1)">
        <rect id="Rectangle_1-2" data-name="Rectangle 1" width="6.38" height="6.38" rx="3.19" transform="translate(12.4 7.51)" fill="#323031"/>
      </g>
      <g data-type="innerShadowGroup">
        <rect id="Rectangle_2-2" data-name="Rectangle 2" width="6.38" height="6.38" rx="3.19" transform="translate(667.107 409.409)" fill="#e0e0e0"/>
        <g transform="matrix(1, 0, 0, 1, 657.9, 384.9)" filter="url(#Rectangle_2)">
          <rect id="Rectangle_2-3" data-name="Rectangle 2" width="6.38" height="6.38" rx="3.19" transform="translate(9.21 24.51)" fill="#fff"/>
        </g>
      </g>
    </g>
  </g>
</svg>

