<svg xmlns="http://www.w3.org/2000/svg" width="238.691" height="64.346" viewBox="0 0 238.691 64.346">
  <g id="Group_1" data-name="Group 1" transform="translate(-320 -420.191)">
    <path id="Path_1" data-name="Path 1" d="M168.418,290.578V272.471l-3.848.377-.19-1.83,9.023-1.773,2.4-.126v21.4c0,3.223,1.261,4.606,3.784,4.606a10.811,10.811,0,0,0,5.363-2.208l1.767-1.135v-19.31l-3.6.378-.191-1.83,8.708-1.769,2.335-.126v21.833a15.575,15.575,0,0,0,.82,5.426l2.965-.189.184,1.7-9.529,1.767-1.452-5.745-9.843,6.247C170.058,300.17,168.418,297.4,168.418,290.578Z" transform="translate(155.62 166.014)" fill="#333"/>
    <path id="Path_2" data-name="Path 2" d="M418.317,293.836l3.849-.572V268.725l-3.976.572L418,267.526l9.212-2.145,2.018-.063.126,5.994,10.41-6.561c6.878,0,8.456,2.717,8.456,9.654v18.864l4.227.572-.119,1.7-7.581-.126-6.561.126-.191-1.7,2.839-.572V274.209c0-3.155-1.261-4.416-3.659-4.416-2.082,0-3.784,1.135-5.865,2.461l-1.892,1.2v19.815l2.9.572-.126,1.7-6.374-.126-7.381.126Z" transform="translate(-61.72 169.759)" fill="#333"/>
    <path id="Path_3" data-name="Path 3" d="M670.941,209.547l4.039-.572V184.182H670.31v-.631l1.073-1.574h3.6v-.7a10.88,10.88,0,0,1,3.408-8.583l6.372-6.306h7.567v5.426h-8.711l-.626,1.2c-.631,1.452-.821,3.156-.821,7.007V182.1h7.888v2.081h-7.893v24.791l6.563.5-.127,1.767-10.283-.126-7.2.126Z" transform="translate(-277.939 254.047)" fill="#333"/>
    <path id="Path_4" data-name="Path 4" d="M844.824,279.83c0,10.032-6.626,14.637-15.9,16.593-8.139,0-13.943-6.247-13.943-15.08,0-10.033,6.626-14.7,15.964-16.593C839.014,264.75,844.824,271,844.824,279.83Zm-22.084-.7c0,9.584,3.47,14.763,8.01,14.763,4.164,0,6.438-4.291,6.438-11.924,0-8.96-3.409-14.765-8.01-14.765-4.165.014-6.437,4.424-6.437,11.933Z" transform="translate(-401.914 169.759)" fill="#333"/>
    <path id="Path_5" data-name="Path 5" d="M1036.662,208.408l3.85-.572V168.468l-3.85.38-.252-1.767,9.148-1.962,2.146-.063v42.779l4.038.572-.189,1.7-7.32-.126-7.438.126Z" transform="translate(-591.669 255.187)" fill="#333"/>
    <path id="Path_6" data-name="Path 6" d="M1160.35,196.039c0-9.4,5.174-15.332,14.639-17.1a13.319,13.319,0,0,1,5.865,1.7V168.094l-3.85.38-.255-1.7,8.959-2.019,2.335-.126v37.162a10.125,10.125,0,0,0,1.01,4.985l3.47-.189.189,1.7-9.78,1.892-1.83-5.554-8.2,5.995C1165.465,210.616,1160.35,204.369,1160.35,196.039Zm19.117,7.382,1.389-1.073V183.8a6.318,6.318,0,0,0-4.985-2.207c-4.983,0-7.76,4.732-7.76,12.241,0,6.878,2.586,11.547,6.437,11.547a8.083,8.083,0,0,0,4.918-1.958Z" transform="translate(-697.882 255.567)" fill="#333"/>
    <path id="Path_7" data-name="Path 7" d="M1424.161,289.924a34.828,34.828,0,0,1-11.351,6.5c-7.949,0-14.7-5.427-14.7-14.828,0-9.086,5.491-14.7,14.575-16.847,7.762,0,11.351,4.8,11.351,11.672v2.588h-18.992c.317,7.255,4.291,11.861,10.473,11.861a15.157,15.157,0,0,0,7.824-2.522Zm-19.118-12.745,11.421-.252v-.82c0-5.174-1.01-8.706-5.293-8.706-3.742,0-5.942,3.407-6.138,9.779Z" transform="translate(-901.618 169.759)" fill="#333"/>
    <path id="Path_8" data-name="Path 8" d="M1606.739,196.039c0-9.4,5.174-15.332,14.64-17.1a13.328,13.328,0,0,1,5.865,1.7V168.094l-3.849.38-.253-1.7,8.959-2.019,2.336-.126v37.162a10.118,10.118,0,0,0,1.01,4.985l3.474-.182.189,1.7-9.78,1.892-1.829-5.553-8.2,5.995C1611.854,210.616,1606.739,204.369,1606.739,196.039Zm19.119,7.382,1.389-1.073V183.8a6.317,6.317,0,0,0-4.986-2.207c-4.984,0-7.761,4.732-7.761,12.241,0,6.878,2.586,11.547,6.439,11.547a8.084,8.084,0,0,0,4.916-1.958Z" transform="translate(-1080.417 255.567)" fill="#333"/>
    <path id="Path_9" data-name="Path 9" d="M857.347,310.811a11.223,11.223,0,0,1-4.028-.5,11.053,11.053,0,0,1-4.5-2.9,11.92,11.92,0,0,1-3.719-7.3,11.332,11.332,0,0,1,1.261-6.341,12.287,12.287,0,0,1,2.688-3.353,11.808,11.808,0,0,1,5.363-2.822,11.658,11.658,0,0,1,6.343.387,11.185,11.185,0,0,1,7.051,7.111,11.352,11.352,0,0,1-1.65,11.085A12.737,12.737,0,0,1,857.347,310.811Z" transform="translate(-427.686 150.409)" fill="#505cbc"/>
    <text id="A_Frontend_Framework" data-name="A Frontend Framework" transform="translate(375.57 481.537)" fill="#505cbc" font-size="11" font-family="Consolas"><tspan x="0" y="0">A Frontend Framework</tspan></text>
  </g>
</svg>

