<svg xmlns="http://www.w3.org/2000/svg" xmlns:xlink="http://www.w3.org/1999/xlink" width="66" height="98.073" viewBox="0 0 66 98.073">
  <defs>
    <filter id="Path_1" x="0" y="0" width="66" height="98.073" filterUnits="userSpaceOnUse">
      <feOffset dy="3" input="SourceAlpha"/>
      <feGaussianBlur stdDeviation="1.5" result="blur"/>
      <feFlood flood-opacity="0.098"/>
      <feComposite operator="in" in2="blur"/>
      <feComposite in="SourceGraphic"/>
    </filter>
    <filter id="Ellipse_1" x="24.5" y="40.537" width="18" height="18" filterUnits="userSpaceOnUse">
      <feOffset dy="3" input="SourceAlpha"/>
      <feGaussianBlur stdDeviation="1.5" result="blur-2"/>
      <feFlood flood-opacity="0.098"/>
      <feComposite operator="in" in2="blur-2"/>
      <feComposite in="SourceGraphic"/>
    </filter>
  </defs>
  <g id="Group_1" data-name="Group 1" transform="translate(-729.653 -310.139)">
    <g transform="matrix(1, 0, 0, 1, 729.65, 310.14)" filter="url(#Path_1)">
      <g id="Path_1-2" data-name="Path 1" transform="translate(6.2 10.06)" fill="none" stroke-linejoin="round">
        <path d="M26.433-1.556,48.3,36.531,26.439,73.517,5.3,36.531Z" stroke="none"/>
        <path d="M 26.43296051025391 -1.556243896484375 L 5.300846099853516 36.53113555908203 L 26.43882751464844 73.51698303222656 L 48.30084228515625 36.53113555908203 L 26.43296051025391 -1.556243896484375 M 26.43320274353027 -8.556251525878906 C 28.93868637084961 -8.556251525878906 31.25471305847168 -7.216743469238281 32.50352478027344 -5.041664123535156 L 54.37141036987305 33.04571914672852 C 55.62641143798828 35.23153686523438 55.60937881469727 37.92328643798828 54.32684326171875 40.09305572509766 L 32.46482849121094 77.07890319824219 C 31.19600868225098 79.22548675537109 28.88079452514648 80.53508758544922 26.38761138916016 80.51679992675781 C 23.89414405822754 80.49855041503906 21.59862899780273 79.1552734375 20.36136245727539 76.9903564453125 L -0.7766227722167969 40.00450134277344 C -1.990970611572266 37.87971878051758 -2.007472991943359 35.27502059936523 -0.8201408386230469 33.1350212097168 L 20.31197738647461 -4.952362060546875 C 21.537109375 -7.16046142578125 23.85654449462891 -8.537567138671875 26.38169479370117 -8.556060791015625 C 26.39880180358887 -8.556190490722656 26.41611099243164 -8.556251525878906 26.43320274353027 -8.556251525878906 Z" stroke="none" fill="#ff4c42"/>
      </g>
    </g>
    <g transform="matrix(1, 0, 0, 1, 729.65, 310.14)" filter="url(#Ellipse_1)">
      <circle id="Ellipse_1-2" data-name="Ellipse 1" cx="4.5" cy="4.5" r="4.5" transform="translate(29 42.04)" fill="#ff4c42"/>
    </g>
  </g>
</svg>




